<?xml version="1.0" encoding="UTF-8" standalone="no"?>
<svg
   version="1.0"
   width="500.000000pt"
   height="500.000000pt"
   viewBox="0 0 500.000000 500.000000"
   preserveAspectRatio="xMidYMid meet"
   id="svg19"
   sodipodi:docname="Blue-Green-Simple-Modern-Dentist-Logo.svg"
   inkscape:version="1.3 (0e150ed6c4, 2023-07-21)"
   inkscape:export-filename="Blue-Green-Simple-Modern-Dentist-Logo.png"
   inkscape:export-xdpi="96"
   inkscape:export-ydpi="96"
   xmlns:inkscape="http://www.inkscape.org/namespaces/inkscape"
   xmlns:sodipodi="http://sodipodi.sourceforge.net/DTD/sodipodi-0.dtd"
   xmlns="http://www.w3.org/2000/svg"
   xmlns:svg="http://www.w3.org/2000/svg">
  <defs
     id="defs19">
    <filter
       inkscape:collect="always"
       style="color-interpolation-filters:sRGB"
       id="filter24"
       x="-0.73815206"
       y="-0.47452632"
       width="2.4763041"
       height="1.9490526">
      <feGaussianBlur
         inkscape:collect="always"
         stdDeviation="0.64713732"
         id="feGaussianBlur24" />
    </filter>
    <filter
       inkscape:collect="always"
       style="color-interpolation-filters:sRGB"
       id="filter25"
       x="-1.3565132"
       y="-0.079350298"
       width="3.7130264"
       height="1.1587006">
      <feGaussianBlur
         inkscape:collect="always"
         stdDeviation="0.93391942"
         id="feGaussianBlur25" />
    </filter>
  </defs>
  <sodipodi:namedview
     id="namedview19"
     pagecolor="#ffffff"
     bordercolor="#000000"
     borderopacity="0.25"
     inkscape:showpageshadow="2"
     inkscape:pageopacity="0.0"
     inkscape:pagecheckerboard="0"
     inkscape:deskcolor="#d1d1d1"
     inkscape:document-units="pt"
     showgrid="false"
     inkscape:zoom="1.648125"
     inkscape:cx="320.36405"
     inkscape:cy="312.77967"
     inkscape:window-width="1920"
     inkscape:window-height="991"
     inkscape:window-x="-9"
     inkscape:window-y="-9"
     inkscape:window-maximized="1"
     inkscape:current-layer="svg19" />
  <path
     d="m 81.065984,187.48987 c 2.5,0.7 9.2,3.7 15,6.6 12.699996,6.5 17.399996,7.2 28.699996,4.2 16.9,-4.5 24.1,-3.7 28.3,3 3.4,5.2 2.3,17.3 -2.5,30.3 -4.8,12.8 -14.3,32.9 -18.6,39.2 -4.5,6.6 -1.1,3.6 6.3,-5.6 15.7,-19.4 26.2,-41 27.4,-56.1 1,-12.2 -5.2,-19 -18.1,-19.8 -5,-0.3 -7.8,0.3 -17.5,3.7 -16.2,5.8 -19.3,5.6 -33.999996,-1.4 -8.4,-4 -12.5,-5.5 -15.5,-5.4 l -4,0.1 z"
     id="path1"
     style="fill:#0767af;fill-opacity:1;stroke:none;stroke-width:0.1" />
  <path
     d="m 65.565984,189.98987 c -3.1,1.4 -7.2,6.2 -9.2,10.6 -2.2,5.1 -2.1,21.8 0.2,34.3 2.5,13 11,37.9 17.4,50.4 5.6,11.1 9.5,15.6 12.5,14.5 0.8,-0.3 4.7,-6.9 8.6,-14.6 11.099996,-22 22.299996,-32.4 38.499996,-36.2 7.3,-1.7 7.8,-1.9 7.3,-2.5 -1.1,-1 -18.5,3.7 -24.8,6.7 -9,4.2 -20.199996,15.8 -25.799996,26.5 -2.3,4.5 -4.9,8.5 -5.8,8.8 -2,0.8 -6.7,-4.2 -9.9,-10.5 -2.9,-5.6 -7.6,-21.2 -10,-32.8 -2.4,-12.1 -1.8,-30.9 1.3,-36.8 5.2,-9.9 16.9,-13.3 29.5,-8.4 4.6,1.8 4.5,1.2 -0.3,-1.7 -11.3,-7 -24.3,-10.6 -29.5,-8.3 z"
     id="path2"
     style="fill:#0767af;fill-opacity:1;stroke:none;stroke-width:0.1" />
  <path
     d="m 197.06598,215.38987 v 9.3 h -6.7 c -8.1,0 -13.2,2.3 -18.6,8.3 -9.3,10.3 -6.6,28.5 5.3,34.8 4,2.2 5.3,2.4 12,1.9 4.1,-0.4 8.4,-0.7 9.5,-0.8 1.1,-0.1 2.7,0.2 3.5,0.5 0.9,0.4 2.8,-0.5 4.8,-2.4 3.3,-3 3.4,-3 1.8,-6.4 -1.3,-2.7 -1.6,-7.6 -1.6,-28.9 v -25.6 h -5 -5 z m -1.6,19.3 c 1.3,0.5 1.6,2.6 1.6,13 v 12.3 l -3.5,0.7 c -7.4,1.4 -13.7,-1.5 -16.1,-7.2 -4.2,-10 1.9,-19.2 12.8,-19.4 2,0 4.3,0.3 5.2,0.6 z"
     id="path3"
     style="fill:#0767af;fill-opacity:1;stroke:none;stroke-width:0.1" />
  <path
     d="m 309.06598,219.08987 v 6 h -3 c -2.9,0 -3,0.1 -3,5 0,4.9 0.1,5 3,5 h 3 v 11.2 c 0,13.5 1.1,17.8 5.1,21.2 2.5,2.1 4.1,2.6 8.9,2.6 3.2,0 7,-0.4 8.4,-1 2.3,-0.8 2.6,-1.5 2.6,-5.9 v -5 l -2.7,1.5 c -3.8,1.9 -6.6,1.8 -9.4,-0.5 -2.2,-1.8 -2.4,-2.8 -2.7,-13 l -0.4,-11.1 h 6.1 6.1 v -5 -5 h -6 -6 v -6 -6 h -5 -5 z"
     id="path4"
     style="fill:#0767af;fill-opacity:1;stroke:none;stroke-width:0.1" />
  <path
     d="m 414.06598,219.08987 v 6 h -3.6 -3.5 l 0.3,4.7 c 0.3,4.6 0.4,4.8 3.6,5.1 l 3.2,0.3 v 12 c 0,13.3 1.1,17.2 5.5,20.7 3.2,2.5 12.5,3.1 17,1 2.2,-1 2.5,-1.7 2.5,-5.9 v -4.8 l -2.7,1.5 c -3.6,1.8 -7.4,1.8 -9.9,0 -1.6,-1.3 -1.9,-2.9 -2.2,-13 l -0.4,-11.6 h 6.1 6.1 v -5 -5 h -6 -6 v -6 -6 h -5 -5 z"
     id="path5"
     style="fill:#0767af;fill-opacity:1;stroke:none;stroke-width:0.1" />
  <path
     d="m 230.56598,224.98987 c -10.9,2.8 -17.6,11.3 -17.7,22.5 -0.1,14 9.4,22.5 25,22.6 4,0 8.8,-0.6 10.6,-1.4 3,-1.2 3.4,-1.9 3.8,-5.8 0.3,-2.3 0.4,-4.4 0.4,-4.5 -0.1,-0.1 -2.6,0.5 -5.6,1.3 -9.7,2.7 -20.1,-0.1 -22.7,-5.9 l -1.1,-2.4 15.6,-0.7 c 8.6,-0.4 16,-1 16.4,-1.2 1.4,-0.9 0.8,-10.4 -0.8,-13.7 -2.1,-4.1 -5.2,-7.5 -8.5,-9.2 -3.3,-1.8 -11.5,-2.6 -15.4,-1.6 z m 11.6,11 c 1.6,1.6 2.9,3.9 2.9,5 0,2 -0.5,2.1 -10.9,2.1 -10.4,0 -10.9,-0.1 -10.4,-2 0.3,-1.1 2.1,-3.3 4,-5 4.7,-4.2 10.3,-4.2 14.4,-0.1 z"
     id="path8"
     style="fill:#0767af;fill-opacity:1;stroke:none;stroke-width:0.1" />
  <path
     d="m 279.06598,225.28987 c -1.9,0.5 -3.9,1.4 -4.4,1.9 -1.5,1.4 -3.6,1.1 -3.6,-0.6 0,-1.1 -1.2,-1.5 -5,-1.5 h -5 v 22.5 22.5 h 5.3 5.2 l -0.3,-15 -0.3,-15.1 3.1,-2.9 c 3.3,-3.1 7.5,-3.9 11,-2 3,1.6 4,6.7 4,21.1 v 13.9 h 5.3 5.2 l -0.3,-15.2 c -0.1,-8.4 -0.5,-16.8 -0.8,-18.6 -0.7,-4.4 -5.8,-9.9 -10.2,-11.2 -4.3,-1.1 -4.5,-1.1 -9.2,0.2 z"
     id="path9"
     style="fill:#0767af;fill-opacity:1;stroke:none;stroke-width:0.1" />
  <path
     d="m 382.06598,225.18987 c -8.3,1.6 -13.6,8 -12.5,14.9 1.3,7.1 5.3,10.1 16.2,12.1 3.2,0.6 6.6,1.5 7.5,2 2.5,1.3 2.2,4.5 -0.4,6.3 -3.9,2.7 -11.5,1.7 -22,-2.9 -1.6,-0.6 -1.8,-0.1 -1.8,4.2 0,4.4 0.3,5.1 2.8,6.3 1.5,0.7 6.8,1.5 11.9,1.8 8,0.4 9.8,0.2 13.8,-1.8 5.1,-2.5 7.5,-6.1 7.5,-11.5 0,-7.8 -3.8,-11.3 -14.4,-13.5 -3.3,-0.7 -7,-1.7 -8.3,-2.3 -3,-1.3 -3.1,-5.2 -0.2,-6.8 3.2,-1.7 12.4,-0.6 15.8,1.9 l 2.8,2.1 1.3,-4.2 c 1.1,-3.8 1,-4.3 -0.9,-5.8 -1.2,-1 -4.4,-2.2 -7.2,-2.8 -5.6,-1.2 -5.6,-1.2 -11.9,0 z"
     id="path10"
     style="fill:#0767af;fill-opacity:1;stroke:none;stroke-width:0.1" />
  <path
     d="m 163.06598,283.08987 c -1.7,1.7 -2,3.3 -2,9.8 0,5.2 0.5,8.5 1.4,9.8 1.4,1.9 4.1,1.9 139.7,2.2 122.8,0.2 138.5,0.1 140.6,-1.3 2.1,-1.4 2.3,-2.2 2.3,-10.5 0,-8.1 -0.2,-9 -2.2,-10.4 -2,-1.4 -16.9,-1.6 -140,-1.6 -136.5,0 -137.8,0 -139.8,2 z m 181.6,3.5 c 2,1.5 1.5,1.8 -2.8,1.5 -2.2,-0.1 -2.9,0.4 -3.4,2.4 -0.9,3.7 1.2,5.9 4.9,5.2 2,-0.4 2.7,-0.2 2.5,0.7 -0.7,1.9 -5.8,2 -7.9,0.1 -1.9,-1.7 -2.5,-6 -1.1,-8 0.7,-1.1 4.2,-3.3 5.3,-3.4 0.3,0 1.4,0.7 2.5,1.5 z m -168.1,0.5 c -0.3,0.5 -1.3,1 -2.1,1 -1,0 -1.4,1.3 -1.4,5 0,2.7 -0.4,5 -1,5 -0.5,0 -1,-2.3 -1,-5 0,-3.8 -0.4,-5 -1.5,-5 -0.8,0 -1.5,-0.5 -1.5,-1 0,-0.6 2.1,-1 4.6,-1 2.7,0 4.3,0.4 3.9,1 z m 16.2,0.6 c 0.3,0.9 0.1,2.5 -0.6,3.6 -1,1.6 -0.9,2.3 0.5,3.9 0.9,1.1 1.4,2.2 1,2.7 -0.4,0.4 -1.8,-0.5 -3.1,-2.1 -3,-3.3 -3.5,-3.4 -3.5,-0.2 0,1.6 -0.6,2.5 -1.5,2.5 -1.2,0 -1.5,-1.3 -1.5,-6 v -6 h 4 c 2.8,0 4.3,0.5 4.7,1.6 z m 17.3,-0.6 c 0,0.5 -1.1,1 -2.5,1 -3.1,0 -3.3,1.7 -0.2,2.2 2.7,0.4 2.6,2.2 -0.3,2.6 -2.9,0.5 -2.5,3.2 0.5,3.2 1.4,0 2.5,0.4 2.5,1 0,0.5 -1.8,1 -4,1 h -4 v -6 -6 h 4 c 2.2,0 4,0.4 4,1 z m 15.4,-0.2 c 0.2,0.4 1.4,3.1 2.5,6 1.6,4.1 1.8,5.2 0.7,5.2 -0.8,0 -1.6,-0.9 -1.9,-2 -0.7,-2.7 -4.1,-2.6 -6,0.2 -2.6,4 -3,1.1 -0.6,-4.6 2.1,-5.1 4,-6.9 5.3,-4.8 z m 20.1,0.2 c -0.3,0.5 -1.3,1 -2.1,1 -1,0 -1.4,1.3 -1.4,5 0,2.7 -0.4,5 -1,5 -0.5,0 -1,-2.3 -1,-5 0,-3.8 -0.4,-5 -1.5,-5 -0.8,0 -1.5,-0.5 -1.5,-1 0,-0.6 2.1,-1 4.6,-1 2.7,0 4.3,0.4 3.9,1 z m 12.3,1.7 1.9,2.6 1.8,-2.6 c 3,-4.6 4.5,-3.5 4.5,3.3 0,3.3 -0.4,6 -1,6 -0.5,0 -1,-1.9 -1,-4.3 l -0.1,-4.2 -2,2.4 c -1.9,2.3 -2,2.3 -3.9,0.6 -2,-1.8 -2,-1.7 -2,1.8 0,2.6 -0.4,3.7 -1.5,3.7 -1.2,0 -1.5,-1.3 -1.5,-6 0,-6.8 1.5,-7.8 4.8,-3.3 z m 24.2,-1.7 c 0,0.5 -1.3,1 -3,1 -1.6,0 -3,0.4 -3,1 0,0.5 1.1,1 2.5,1 1.6,0 2.5,0.6 2.5,1.5 0,0.9 -0.9,1.5 -2.5,1.5 -1.6,0 -2.5,0.6 -2.5,1.5 0,1 1,1.5 3,1.5 1.7,0 3,0.4 3,1 0,0.5 -1.8,1 -4,1 h -4 v -6 -6 h 4 c 2.2,0 4,0.4 4,1 z m 13.7,3.2 2.8,4.2 0.3,-4.2 c 0.5,-6.4 2.2,-5 2.2,1.8 0,3.3 -0.4,6 -0.9,6 -0.5,0 -2.3,-1.7 -4,-3.8 l -3,-3.7 -0.1,3.7 c 0,2.7 -0.4,3.8 -1.5,3.8 -1.2,0 -1.5,-1.3 -1.5,-6 0,-7.4 1.7,-7.9 5.7,-1.8 z m 21.3,-3.2 c 0,0.5 -0.7,1 -1.5,1 -1.1,0 -1.5,1.2 -1.5,5 0,2.7 -0.4,5 -1,5 -0.5,0 -1,-2.3 -1,-5 0,-3.7 -0.4,-5 -1.4,-5 -0.8,0 -1.8,-0.5 -2.1,-1 -0.4,-0.6 1.2,-1 3.9,-1 2.5,0 4.6,0.4 4.6,1 z m 45,0 c 0,0.5 -1.1,1 -2.5,1 -3.1,0 -3.3,1.7 -0.2,2.2 2.7,0.4 2.6,2.2 -0.3,2.6 -2.9,0.5 -2.5,3.2 0.5,3.2 1.4,0 2.5,0.4 2.5,1 0,0.5 -1.8,1 -4,1 h -4 v -6 -6 h 4 c 2.2,0 4,0.4 4,1 z m 14,2.7 2.5,3.7 0.3,-3.7 c 0.2,-2.4 0.8,-3.7 1.8,-3.7 1.1,0 1.4,1.4 1.4,6 0,7.3 -1.5,7.8 -5.6,1.8 l -2.9,-4.2 -0.3,4.2 c -0.5,6.4 -2.2,5 -2.2,-1.8 0,-7.1 1.3,-7.7 5,-2.3 z m 21.5,-2.7 c -0.3,0.5 -1.3,1 -2.1,1 -1,0 -1.4,1.3 -1.4,5 0,2.7 -0.4,5 -1,5 -0.5,0 -1,-2.3 -1,-5 0,-3.8 -0.4,-5 -1.5,-5 -0.8,0 -1.5,-0.5 -1.5,-1 0,-0.6 2.1,-1 4.6,-1 2.7,0 4.3,0.4 3.9,1 z m 15.5,0 c 0,0.5 -1.1,1 -2.5,1 -3.1,0 -3.3,1.7 -0.2,2.2 2.7,0.4 2.6,2.2 -0.3,2.6 -2.9,0.5 -2.5,3.2 0.5,3.2 1.4,0 2.5,0.4 2.5,1 0,0.5 -1.8,1 -4,1 h -4 v -6 -6 h 4 c 2.2,0 4,0.4 4,1 z m 16.8,1.9 c 0.2,1.3 -0.1,2.7 -0.7,3.1 -0.8,0.4 -0.5,1.5 0.9,3.3 1.8,2.2 1.9,2.7 0.6,2.7 -0.9,0 -2.3,-1.1 -3.2,-2.5 -0.9,-1.4 -2,-2.5 -2.5,-2.5 -0.5,0 -0.9,1.1 -0.9,2.5 0,1.6 -0.6,2.5 -1.5,2.5 -1.2,0 -1.5,-1.3 -1.5,-6.1 v -6 l 4.3,0.3 c 3.6,0.3 4.3,0.7 4.5,2.7 z"
     id="path16"
     style="fill:#0767af;fill-opacity:1;stroke:none;stroke-width:0.1" />
  <path
     d="m 187.06598,289.68987 c 0,0.9 0.7,1.4 1.7,1.2 2.5,-0.5 2.8,-2.8 0.4,-2.8 -1.2,0 -2.1,0.6 -2.1,1.6 z"
     id="path17"
     style="fill:#0767af;fill-opacity:1;stroke:none;stroke-width:0.1" />
  <path
     d="m 223.06598,290.48987 c 0,0.9 0.5,1.6 1,1.6 0.6,0 1,-0.4 1,-0.9 0,-0.6 -0.4,-1.3 -1,-1.6 -0.5,-0.3 -1,0.1 -1,0.9 z"
     id="path18"
     style="fill:#0767af;fill-opacity:1;stroke:none;stroke-width:0.1" />
  <path
     d="m 424.06598,289.58987 c 0,0.8 0.9,1.5 2,1.5 1.1,0 2,-0.7 2,-1.5 0,-0.8 -0.9,-1.5 -2,-1.5 -1.1,0 -2,0.7 -2,1.5 z"
     id="path19"
     style="fill:#0767af;fill-opacity:1;stroke:none;stroke-width:0.1" />
  <rect
     style="fill:#7ab866;fill-opacity:1;stroke:#000000;stroke-width:0.1;stroke-miterlimit:2.2;stroke-dasharray:none;stroke-opacity:1;paint-order:markers stroke fill"
     id="rect19"
     width="10.920557"
     height="47.094936"
     x="343.88397"
     y="221.59644"
     ry="6.7115993" />
  <path
     id="rect21"
     style="fill:#7ab866;stroke:#000000;stroke-width:0.1;stroke-miterlimit:2.2;stroke-dasharray:none;stroke-opacity:1;paint-order:markers stroke fill"
     d="m 345.51612,207.50363 h 10.0547 c 1.1809,0 0.80437,1.07135 0.80437,2.25225 0,1.18091 0.37653,2.01094 -0.80437,2.01094 h -10.0547 c -1.18091,0 -2.1316,-0.95069 -2.1316,-2.1316 0,-1.1809 0.95069,-2.13159 2.1316,-2.13159 z"
     sodipodi:nodetypes="sssssss" />
  <rect
     style="fill:#0767af;fill-opacity:1;stroke:#000000;stroke-width:0.0970501;stroke-miterlimit:2.2;stroke-dasharray:none;stroke-opacity:1;paint-order:markers stroke fill"
     id="rect20"
     width="5.1414962"
     height="10.787873"
     x="346.84015"
     y="211.68108"
     ry="0" />
  <path
     id="rect22"
     style="fill:#66adb8;fill-opacity:1;stroke:#000000;stroke-width:0.1;stroke-miterlimit:2.2;stroke-dasharray:none;stroke-opacity:1;paint-order:markers stroke fill"
     d="m 356.46941,208.44757 3.84719,0.0213 c 0.69071,0.004 1.24679,0.55606 1.24679,1.24678 0,0.69072 -0.55607,1.24679 -1.24679,1.24679 h -3.8543 c -0.10061,0 -0.10561,-0.35501 -0.0987,-1.0457 0.007,-0.71205 0.0197,-1.46968 0.10582,-1.4692 z"
     sodipodi:nodetypes="sssssss" />
  <rect
     style="fill:#7ab866;fill-opacity:1;stroke:#000000;stroke-width:0.1;stroke-miterlimit:2.2;stroke-dasharray:none;stroke-opacity:1;paint-order:markers stroke fill"
     id="rect23"
     width="2.8555126"
     height="1.0456848"
     x="361.36151"
     y="209.20461"
     ry="0" />
  <ellipse
     style="mix-blend-mode:normal;fill:#dbeffe;fill-opacity:0.828704;stroke:#000000;stroke-width:0.0999997;stroke-miterlimit:2.2;stroke-dasharray:none;stroke-opacity:1;paint-order:markers stroke fill;filter:url(#filter24)"
     id="path23"
     cx="353.07724"
     cy="231.55449"
     rx="1.0859073"
     ry="1.6891892" />
  <rect
     style="mix-blend-mode:normal;fill:#e1f2fe;fill-opacity:0.638889;stroke:#000000;stroke-width:0.0999997;stroke-miterlimit:2.2;stroke-dasharray:none;stroke-opacity:1;paint-order:markers stroke fill;filter:url(#filter25)"
     id="rect24"
     width="1.6891885"
     height="28.8771"
     x="351.99133"
     y="235.09373"
     ry="0.52284425" />
  <path
     style="opacity:0.772358;fill:#e1f2fe;fill-opacity:0;stroke:#000000;stroke-width:0.3;stroke-miterlimit:2.2;stroke-dasharray:none;stroke-opacity:1;paint-order:markers stroke fill"
     d="m 349.6002,268.71983 c -0.26127,1.12825 -0.008,3.06121 0.0735,3.17857 0.0904,0.18138 5.1469,0.62262 6.5243,0.035 1.63618,-1.09298 -1.46519,-6.68974 1.16601,-7.28037 0.36773,0.10377 1.52634,-2.47411 -0.11376,-5.37497 -0.60663,-0.96958 1.24054,-2.76339 2.87234,-2.95765 v 0 0"
     id="path25"
     sodipodi:nodetypes="cccccccc" />
  <circle
     style="opacity:0.772358;fill:#7ab866;fill-opacity:1;stroke:#000000;stroke-width:0.0999997;stroke-miterlimit:2.2;stroke-dasharray:none;stroke-opacity:1;paint-order:markers stroke fill"
     id="path26"
     cx="350.73947"
     cy="182.02502"
     r="13.196815" />
  <rect
     style="opacity:1;fill:#ffffff;fill-opacity:1;stroke:none;stroke-width:0.1066;stroke-miterlimit:2.2;stroke-dasharray:none;stroke-opacity:1;paint-order:markers stroke fill"
     id="rect27"
     width="6.5983796"
     height="17.064846"
     x="348.00909"
     y="173.03754"
     ry="2.6626053" />
  <rect
     style="opacity:1;fill:#ffffff;fill-opacity:0.94902;stroke:none;stroke-width:0.0999997;stroke-miterlimit:2.2;stroke-dasharray:none;stroke-opacity:1;paint-order:markers stroke fill"
     id="rect28"
     width="18.998867"
     height="6.5984039"
     x="341.63821"
     y="178.38452"
     ry="2.3430927" />
  <g
     id="path28"
     transform="translate(6,-7.5)">
    <path
       style="color:#000000;fill:#7ab866;stroke-miterlimit:2.2;-inkscape-stroke:none;paint-order:markers stroke fill"
       d="m 76.369141,232.56836 c 11.170163,8.81213 23.066209,9.81896 32.298829,8.04883 4.61631,-0.88507 8.605,-2.42226 11.71289,-3.97657 3.10789,-1.5543 5.22391,-2.98298 6.5918,-4.29296 -6.50616,-1.02874 -39.373907,-5.07345 -50.603519,0.2207 z"
       id="path37"
       sodipodi:nodetypes="csscc" />
    <path
       style="color:#000000;fill:#ffffff;fill-opacity:0.94902;stroke-miterlimit:2.2;-inkscape-stroke:none;paint-order:markers stroke fill"
       d="m 78.537598,229.8208 c 20.688046,16.32078 42.562752,3.30483 46.013672,0 z"
       id="path38" />
  </g>
</svg>
