<?xml version="1.0" encoding="UTF-8" standalone="no"?>
<!-- Created with Inkscape (http://www.inkscape.org/) -->

<svg
   width="210mm"
   height="297mm"
   viewBox="0 0 210 297"
   version="1.1"
   id="svg1"
   inkscape:version="1.3 (0e150ed6c4, 2023-07-21)"
   sodipodi:docname="Teeth.svg"
   inkscape:export-filename="Teeth.png"
   inkscape:export-xdpi="96"
   inkscape:export-ydpi="96"
   xmlns:inkscape="http://www.inkscape.org/namespaces/inkscape"
   xmlns:sodipodi="http://sodipodi.sourceforge.net/DTD/sodipodi-0.dtd"
   xmlns="http://www.w3.org/2000/svg"
   xmlns:svg="http://www.w3.org/2000/svg">
  <sodipodi:namedview
     id="namedview1"
     pagecolor="#ffffff"
     bordercolor="#000000"
     borderopacity="0.25"
     inkscape:showpageshadow="2"
     inkscape:pageopacity="0.0"
     inkscape:pagecheckerboard="0"
     inkscape:deskcolor="#d1d1d1"
     inkscape:document-units="mm"
     inkscape:zoom="0.9789084"
     inkscape:cx="167.53355"
     inkscape:cy="535.8009"
     inkscape:window-width="1920"
     inkscape:window-height="991"
     inkscape:window-x="-9"
     inkscape:window-y="-9"
     inkscape:window-maximized="1"
     inkscape:current-layer="layer1" />
  <defs
     id="defs1" />
  <g
     inkscape:label="Layer 1"
     inkscape:groupmode="layer"
     id="layer1">
    <path
       d="m 78.399663,89.851799 c 2.498259,0.65624 9.193589,3.46863 14.989546,6.18732 12.691141,6.093521 17.387861,6.749781 28.679981,3.93735 16.88823,-4.21861 24.08321,-3.46865 28.28026,2.812431 3.39764,4.87483 2.2984,16.21822 -2.49824,28.40532 -4.79665,11.99965 -14.29003,30.84281 -18.58704,36.74885 -4.49686,6.18731 -1.09923,3.37491 6.29561,-5.24984 15.68905,-18.1869 26.18174,-38.43627 27.3809,-52.59208 0.99931,-11.437141 -5.19638,-17.811961 -18.08738,-18.561921 -4.9965,-0.28123 -7.79457,0.28126 -17.4878,3.46865 -16.18871,5.437331 -19.28655,5.249841 -33.976291,-1.31246 -8.394146,-3.74988 -12.491287,-5.15608 -15.489196,-5.06233 l -3.997213,0.0939 z"
       id="path1"
       style="fill:#0767af;fill-opacity:1;stroke:none;stroke-width:0.0967894" />
    <path
       d="m 62.910469,92.195479 c -3.097837,1.31246 -7.19498,5.81232 -9.193587,9.937161 -2.198467,4.78113 -2.098534,20.43687 0.199874,32.15526 2.498255,12.18711 10.99233,35.53014 17.387868,47.2485 5.596096,10.40591 9.49338,14.62453 12.491289,13.59332 0.799441,-0.28125 4.696724,-6.46855 8.594004,-13.68707 11.092253,-20.62436 22.284453,-30.37404 38.473153,-33.93642 7.29492,-1.59372 7.79456,-1.78118 7.29492,-2.34368 -1.09924,-0.93749 -18.48711,3.46863 -24.78272,6.28103 -8.99373,3.93739 -20.185911,14.81204 -25.782006,24.84297 -2.298396,4.21861 -4.896587,7.9685 -5.79596,8.24974 -1.998605,0.74998 -6.69533,-3.93737 -9.893096,-9.84343 -2.89798,-5.24986 -7.594702,-19.87439 -9.99303,-30.74903 -2.398327,-11.34338 -1.798745,-28.96783 1.299095,-34.4989 5.196374,-9.28097 16.888218,-12.468371 29.479434,-7.87477 4.596793,1.68745 4.496863,1.12498 -0.29979,-1.593691 -11.292123,-6.56228 -24.283062,-9.93718 -29.479434,-7.78099 z"
       id="path2"
       style="fill:#0767af;fill-opacity:1;stroke:none;stroke-width:0.0967894" />
    <g
       id="path28"
       transform="matrix(0.9993029,0,0,1.3437347,3.1157254,-176.25256)"
       style="stroke-width:10.3317;stroke-dasharray:none">
      <path
         style="color:#000000;fill:#7ab866;stroke-width:10.3317;stroke-miterlimit:2.2;stroke-dasharray:none;paint-order:markers stroke fill"
         d="m 76.369141,232.56836 c 11.170163,8.81213 23.066209,9.81896 32.298829,8.04883 4.61631,-0.88507 8.605,-2.42226 11.71289,-3.97657 3.10789,-1.5543 5.22391,-2.98298 6.5918,-4.29296 -6.50616,-1.02874 -39.373907,-5.07345 -50.603519,0.2207 z"
         id="path37"
         sodipodi:nodetypes="csscc" />
      <path
         style="color:#000000;fill:#ffffff;fill-opacity:0.94902;stroke-width:10.3317;stroke-miterlimit:2.2;stroke-dasharray:none;paint-order:markers stroke fill"
         d="m 78.537598,229.8208 c 20.688046,16.32078 42.562752,3.30483 46.013672,0 z"
         id="path38" />
    </g>
    <ellipse
       style="fill:#0767af;fill-opacity:1;stroke:#0767af;stroke-width:2.46944;stroke-miterlimit:2.2;stroke-opacity:1;paint-order:markers stroke fill"
       id="path3"
       cx="172.04616"
       cy="29.354771"
       rx="6.8922429"
       ry="10.946505"
       transform="rotate(32.367214)" />
    <ellipse
       style="fill:#0767af;fill-opacity:1;stroke:#0767af;stroke-width:2.46944;stroke-miterlimit:2.2;stroke-opacity:1;paint-order:markers stroke fill"
       id="path4"
       cx="136.57152"
       cy="59.726433"
       rx="6.8922429"
       ry="11.622214"
       transform="rotate(28.838748)" />
    <ellipse
       style="fill:#ffffff;fill-opacity:1;stroke:none;stroke-width:2.46944;stroke-miterlimit:2.2;stroke-opacity:1;paint-order:markers stroke fill"
       id="path5"
       cx="128.15405"
       cy="75.764847"
       rx="1.8156371"
       ry="3.3445945"
       transform="rotate(21.368875)" />
    <ellipse
       style="fill:#ffffff;fill-opacity:1;stroke:none;stroke-width:2.46944;stroke-miterlimit:2.2;stroke-opacity:1;paint-order:markers stroke fill"
       id="path5-8"
       cx="161.17146"
       cy="62.037338"
       rx="1.8156371"
       ry="3.3445945"
       transform="rotate(21.368875)" />
  </g>
</svg>
